<svg aria-hidden="true" style="position: absolute; width: 0; height: 0; overflow: hidden;" version="1.1" xmlns="http://www.w3.org/2000/svg" xmlns:xlink="http://www.w3.org/1999/xlink">
<defs>
<symbol id="icon-barbershop-pole" viewBox="0 0 10 32">
<path d="M0.839 8.207h8.392c0.261 0 0.475-0.214 0.475-0.475s-0.214-0.475-0.475-0.475h-8.392c-0.261 0-0.475 0.214-0.475 0.475s0.214 0.475 0.475 0.475zM0.839 29.138h8.392c0.261 0 0.475-0.214 0.475-0.475s-0.214-0.475-0.475-0.475h-8.392c-0.261 0-0.475 0.214-0.475 0.475s0.214 0.475 0.475 0.475zM4.96 0.364c-2.372 0-4.296 1.924-4.296 4.296 0 0.824 0.232 1.594 0.635 2.248h7.322c0.402-0.654 0.635-1.424 0.635-2.248 0-2.372-1.924-4.296-4.296-4.296zM8.657 29.437h-7.343c0.705 0.773 2.085 1.299 3.672 1.299s2.966-0.525 3.672-1.299zM9.171 8.571v19.253h0.060c0.461 0 0.839 0.378 0.839 0.839s-0.377 0.839-0.839 0.839h-0.133c-0.316 0.333-0.608 0.6-1.002 0.837-0.346 0.195-0.701 0.345-1.079 0.466-0.361 0.107-0.722 0.184-1.094 0.235l0.001 0.014c0.003 0.168-0.034 0.318-0.11 0.467-0.076 0.132-0.168 0.234-0.292 0.322-0.159 0.102-0.322 0.151-0.511 0.156-0.11-0.003-0.21-0.020-0.314-0.056-0.156-0.061-0.281-0.15-0.391-0.277-0.141-0.18-0.212-0.383-0.208-0.612l0-0.008-0.025-0.003c-0.381-0.052-0.75-0.129-1.119-0.238-0.418-0.134-0.808-0.303-1.184-0.53-0.348-0.224-0.611-0.473-0.896-0.774h-0.033c-0.461 0-0.839-0.378-0.839-0.839s0.378-0.839 0.839-0.839h0.010v-19.253h-0.010c-0.461 0-0.839-0.377-0.839-0.839s0.378-0.839 0.839-0.839h0.030c-0.374-0.697-0.562-1.446-0.57-2.236 0.022-0.881 0.236-1.649 0.675-2.414 0.418-0.652 0.917-1.151 1.569-1.569 0.766-0.44 1.534-0.653 2.417-0.675 0.962 0.024 1.795 0.277 2.606 0.796 0.696 0.495 1.205 1.083 1.595 1.844 0.297 0.657 0.442 1.296 0.46 2.018-0.004 0.441-0.063 0.867-0.181 1.291-0.097 0.327-0.227 0.644-0.389 0.945h0.18c0.461 0 0.839 0.378 0.839 0.839s-0.377 0.839-0.839 0.839h-0.060zM6.128 27.489l2.579-1.127v-2.698l-7.393 3.232v0.593h4.814zM1.314 22.65l7.393-3.232v-2.847l-7.393 3.232v2.847zM1.314 15.556l7.393-3.232v-3.247l-7.393 3.232v3.247zM5.54 30.94c-0.183 0.011-0.368 0.016-0.555 0.016-0.171 0-0.339-0.005-0.506-0.014-0.012 0.045-0.019 0.093-0.019 0.142 0 0.303 0.246 0.549 0.55 0.549s0.55-0.246 0.55-0.549c0-0.050-0.007-0.099-0.019-0.145zM4.71 0.914c-2.267 0.424-3.78 3.021-2.898 5.319 0.447-0.788 0.906-1.128 1.749-1.123-0.637-1.81-0.107-3.149 1.149-4.196z"></path>
</symbol>
<symbol id="icon-phone" viewBox="0 0 32 32">
<path d="M26.913 20.019c-1.157-1.142-2.6-1.142-3.75 0-0.877 0.869-1.753 1.738-2.615 2.622-0.236 0.243-0.434 0.295-0.722 0.133-0.567-0.309-1.171-0.56-1.716-0.899-2.541-1.599-4.67-3.654-6.556-5.967-0.936-1.149-1.768-2.379-2.35-3.764-0.118-0.28-0.096-0.464 0.133-0.692 0.877-0.847 1.731-1.716 2.593-2.586 1.201-1.208 1.201-2.622-0.007-3.838-0.685-0.692-1.37-1.37-2.055-2.063-0.707-0.707-1.407-1.422-2.122-2.122-1.157-1.127-2.6-1.127-3.749 0.007-0.884 0.869-1.731 1.761-2.63 2.615-0.832 0.788-1.252 1.753-1.341 2.88-0.14 1.834 0.309 3.565 0.943 5.252 1.296 3.492 3.271 6.593 5.665 9.436 3.234 3.845 7.094 6.887 11.609 9.083 2.033 0.987 4.14 1.746 6.431 1.871 1.576 0.088 2.947-0.309 4.044-1.54 0.751-0.84 1.599-1.606 2.394-2.409 1.179-1.193 1.186-2.637 0.015-3.816-1.4-1.407-2.807-2.807-4.213-4.206z"></path>
</symbol>
<symbol id="icon-barbershop" viewBox="0 0 32 32">
<path fill="#ff6e40" style="fill: var(--color1, #ff6e40)" d="M18.5 18.5v4.639c0.298 0.173 0.5 0.492 0.5 0.861s-0.202 0.688-0.5 0.861v4.139h5v-10.5h-5z"></path>
<path fill="#ff6e40" style="fill: var(--color1, #ff6e40)" d="M14.5 21.5h-9v-5h9v5z"></path>
<path fill="#efe7e2" style="fill: var(--color2, #efe7e2)" d="M18.877 7.5c-0.746 0-1.394 0.505-1.575 1.229l-0.062 0.248-0.636-0.181-1.123-3.933-0.962 0.275 0.953 3.334-3.335-0.952-0.275 0.961 3.933 1.124 0.182 0.636-0.248 0.062c-0.724 0.18-1.229 0.828-1.229 1.574 0 0.895 0.728 1.623 1.623 1.623 0.759 0 1.377-0.618 1.377-1.377 0-0.127-0.018-0.254-0.053-0.379l-0.519-1.816 1.817 0.519c0.123 0.035 0.251 0.053 0.378 0.053 0.759 0 1.377-0.618 1.377-1.377 0-0.895-0.728-1.623-1.623-1.623zM16.123 12.5c-0.344 0-0.623-0.28-0.623-0.623 0-0.287 0.194-0.535 0.472-0.605l0.28-0.070 0.233 0.816c0.010 0.034 0.015 0.070 0.015 0.105 0 0.208-0.169 0.377-0.377 0.377zM19.019 9.485l-0.817-0.233 0.070-0.28c0.070-0.278 0.318-0.472 0.605-0.472 0.343 0 0.623 0.279 0.623 0.623 0 0.242-0.248 0.428-0.481 0.362z"></path>
<path fill="#efe7e2" style="fill: var(--color2, #efe7e2)" d="M30.5 11.5h-0.328l1.404-4.68-0.263-0.21c-4.925-3.941-11.111-6.11-17.417-6.11h-5.396v4.403c-4.604 0.811-7.608 2.579-7.758 2.669l-0.357 0.215 1.393 3.714h-0.278c-0.551 0-1 0.449-1 1v1c0 0.551 0.449 1 1 1v10.775c-0.61 0.353-1 1.006-1 1.725 0 0.312 0.080 0.612 0.216 0.886-0.133 0.17-0.216 0.381-0.216 0.614v3h30v-4c0.552 0 1-0.448 1-1v-7c0-0.329-0.162-0.62-0.408-0.802 0.253-0.335 0.408-0.747 0.408-1.198 0-0.737-0.405-1.375-1-1.722v-1.278c0.552 0 1-0.449 1-1v-1c0-0.551-0.448-1-1-1zM9.5 1.5h4.396c5.968 0 11.824 2.015 16.528 5.682l-1.296 4.318h-1.628v-3.26l-0.213-0.15c-0.083-0.058-2.057-1.418-5.735-2.454-1.141-1.876-3.199-3.136-5.552-3.136-1.868 0-3.55 0.797-4.737 2.063-0.608 0.042-1.195 0.105-1.763 0.183v-3.246zM16 14.5c-3.032 0-5.5-2.468-5.5-5.5s2.468-5.5 5.5-5.5c3.033 0 5.5 2.467 5.5 5.5s-2.467 5.5-5.5 5.5zM4.861 11.5l-0.786-2.356c0.339-0.127 0.707-0.256 1.1-0.384l0.685 2.74h-0.999zM6.891 11.5l-0.758-3.031c0.323-0.091 0.663-0.179 1.012-0.262l0.732 3.293h-0.986zM8.901 11.5l-0.78-3.51c0.483-0.097 0.985-0.182 1.505-0.254-0.081 0.409-0.126 0.832-0.126 1.265 0 0.886 0.18 1.73 0.502 2.5h-1.101zM26.5 9.613c-0.79-0.439-2.171-1.112-4.102-1.723-0.062-0.357-0.153-0.704-0.27-1.038 2.348 0.748 3.844 1.596 4.372 1.922v0.84zM22.499 8.974c0 0 0.001 0 0.001 0v2.526h-0.501c0.322-0.77 0.501-1.614 0.501-2.5 0-0.009-0.001-0.017-0.001-0.026zM23.5 9.333c0.364 0.14 0.696 0.278 1 0.412v1.756h-1v-2.167zM25.5 10.217c0.467 0.237 0.802 0.433 1 0.556v0.727h-1v-1.283zM10.449 5.636c-0.203 0.333-0.376 0.684-0.517 1.053-3.693 0.447-6.59 1.605-8.033 2.285l-0.279-0.744c1.063-0.558 4.379-2.124 8.829-2.593zM2.252 9.913c0.25-0.119 0.547-0.253 0.893-0.399l0.662 1.986h-0.959l-0.595-1.587zM1.5 12.5h9.031c0.23 0.359 0.494 0.694 0.789 1h-9.82v-1zM2.174 26.062l0.359-0.125-0.025-0.38-0.008-0.057c0-0.551 0.449-1 1-1 0.421 0 0.799 0.271 0.938 0.674l0.125 0.359 0.379-0.024 0.057-0.008c0.552 0 1 0.449 1 1s-0.448 1-1 1h-3.364c-0.087-0.151-0.137-0.323-0.137-0.5 0-0.421 0.271-0.798 0.673-0.938zM12.827 26.062c0.402 0.14 0.673 0.517 0.673 0.938 0 0.177-0.048 0.349-0.136 0.5h-3.364c-0.551 0-1-0.448-1-1s0.449-1 0.983-1l0.453 0.032 0.125-0.359c0.141-0.403 0.518-0.674 0.939-0.674 0.552 0 1 0.449 1 0.982l-0.032 0.454 0.359 0.126zM9.494 24.572c-0.857 0.225-1.494 1.001-1.494 1.928 0 0.366 0.106 0.705 0.278 1h-1.556c0.172-0.295 0.278-0.634 0.278-1 0-1.024-0.773-1.871-1.767-1.986-0.102-0.18-0.232-0.338-0.381-0.476 0.282-0.334 0.7-0.538 1.148-0.538 0.375 0 0.736 0.144 1.017 0.405l0.385 0.357 0.338-0.401c0.193-0.229 0.47-0.361 0.76-0.361 0.552 0 1 0.449 1 1 0 0.024-0.004 0.048-0.006 0.072zM13.5 30.5h-12v-2h12v2zM14.5 29.5h12v1h-12v-1zM24.5 28.5h-3v-1h2v-1h-2v-1h2v-1h-2v-1h2v-1h-2v-1h2v-1h-2v-2h-1v2h-2v1h2v1h-2v0.092c-0.157-0.056-0.324-0.092-0.5-0.092s-0.343 0.036-0.5 0.092v-5.092h7v11zM18 24.5c-0.275 0-0.5-0.224-0.5-0.5s0.225-0.5 0.5-0.5c0.276 0 0.5 0.224 0.5 0.5s-0.224 0.5-0.5 0.5zM19.408 23.5h1.092v1h-1.092c0.056-0.157 0.092-0.324 0.092-0.5s-0.036-0.343-0.092-0.5zM17.5 25.408c0.157 0.056 0.324 0.092 0.5 0.092s0.343-0.036 0.5-0.092v0.092h2v1h-2v1h2v1h-3v-3.092zM28.5 26.5v-1h2.001v1h-2.001zM28.5 17.5c0-0.551 0.449-1 1-1s1 0.449 1 1-0.448 1-1 1c-0.551 0-1-0.449-1-1zM30.5 19.5v1h-2v-1h2zM30.501 24.066l-2.001-1.334v-0.798l2.001 1.333v0.798zM29.652 21.5h0.848v0.566l-0.848-0.566zM29.349 24.5h-0.849v-0.566l0.849 0.566zM29.5 15.5c-1.103 0-2 0.897-2 2 0 0.451 0.156 0.863 0.409 1.198-0.247 0.182-0.409 0.473-0.409 0.802v7c0 0.552 0.449 1 1 1h1v3h-2v-1c0-0.552-0.448-1-1-1h-1v-12h-9v12h-2c0-0.233-0.083-0.443-0.216-0.614 0.136-0.274 0.216-0.574 0.216-0.886 0-0.724-0.395-1.382-1.013-1.733-0.116-0.993-0.963-1.767-1.987-1.767-0.408 0-0.794 0.129-1.117 0.351-0.272-0.783-1.009-1.351-1.883-1.351-0.425 0-0.833 0.138-1.173 0.386-0.396-0.251-0.854-0.386-1.327-0.386-0.817 0-1.572 0.406-2.036 1.059-0.151-0.037-0.305-0.059-0.464-0.059-0.365 0-0.705 0.102-1 0.273v-9.273h10.052c1.001 0.63 2.181 1 3.448 1s2.448-0.37 3.449-1h10.051v1zM30.5 13.5h-9.82c0.294-0.306 0.558-0.641 0.789-1h9.031v1z"></path>
<path fill="#efe7e2" style="fill: var(--color2, #efe7e2)" d="M9.5 16.5h1v5h-1v-5z"></path>
</symbol>
<symbol id="icon-time" viewBox="0 0 32 32">
<path d="M16 30.666c8.1 0 14.667-6.567 14.667-14.667s-6.567-14.667-14.667-14.667c-8.1 0-14.667 6.566-14.667 14.667s6.566 14.667 14.667 14.667zM17.334 14.667h5.333v2.667h-8v-10.788h2.667v8.121z"></path>
</symbol>
<symbol id="icon-email" viewBox="0 0 32 32">
<path d="M30.117 23.294c0 0.619-0.174 1.193-0.453 1.698l-8.915-9.975 8.818-7.715c0.343 0.544 0.55 1.184 0.55 1.875v14.117zM16 16.828l12.271-10.736c-0.504-0.276-1.071-0.445-1.682-0.445h-21.177c-0.612 0-1.18 0.169-1.681 0.445l12.269 10.736zM19.421 16.179l-2.84 2.487c-0.166 0.145-0.373 0.217-0.581 0.217s-0.415-0.072-0.581-0.217l-2.841-2.487-9.028 10.102c0.541 0.34 1.175 0.543 1.861 0.543h21.177c0.686 0 1.32-0.203 1.861-0.543l-9.029-10.102zM2.432 7.302c-0.343 0.544-0.55 1.184-0.55 1.875v14.117c0 0.619 0.173 1.193 0.453 1.698l8.914-9.976-8.817-7.714z"></path>
</symbol>
<symbol id="icon-hair" viewBox="0 0 32 32">
<path fill="#ff6e40" style="fill: var(--color1, #ff6e40)" d="M27 28.5h-6c-0.827 0-1.5-0.673-1.5-1.5s0.673-1.5 1.5-1.5h6c0.827 0 1.5 0.673 1.5 1.5s-0.673 1.5-1.5 1.5z"></path>
<path fill="#ff6e40" style="fill: var(--color1, #ff6e40)" d="M6.5 10.5h0.5v-0.697c0-0.952 0.403-1.851 1.093-2.484 0.234 0.687 0.884 1.181 1.65 1.181h4.639c0.733 0 1.353-0.488 1.552-1.157 0.674 0.631 1.066 1.519 1.066 2.46v0.697h0.5c0.415 0 0.79 0.168 1.062 0.441l0.409-1.023c0.351-0.877 0.529-1.802 0.529-2.746 0-2.162-0.942-4.209-2.583-5.615l-1.344-1.152-0.297 0.148c-0.901 0.451-3.281 1.12-6.699 1.885-1.812 0.405-3.077 1.988-3.077 3.848v0.007l-0.178 0.178c-0.53 0.53-0.822 1.235-0.822 1.984 0 0.433 0.103 0.867 0.296 1.255l0.626 1.251c0.273-0.283 0.654-0.461 1.078-0.461z"></path>
<path fill="#efe7e2" style="fill: var(--color2, #efe7e2)" d="M10 11c0.275 0 0.5 0.224 0.5 0.5h1c0-0.827-0.673-1.5-1.5-1.5s-1.5 0.673-1.5 1.5h1c0-0.276 0.224-0.5 0.5-0.5z"></path>
<path fill="#efe7e2" style="fill: var(--color2, #efe7e2)" d="M14 11c0.275 0 0.5 0.224 0.5 0.5h1c0-0.827-0.673-1.5-1.5-1.5s-1.5 0.673-1.5 1.5h1c0-0.276 0.224-0.5 0.5-0.5z"></path>
<path fill="#efe7e2" style="fill: var(--color2, #efe7e2)" d="M14.449 13.735l0.025-0.077-0.948-0.316-0.026 0.077c-0.215 0.647-0.818 1.081-1.5 1.081s-1.284-0.434-1.5-1.081l-0.025-0.077-0.949 0.316 0.026 0.077c0.351 1.056 1.335 1.765 2.448 1.765s2.097-0.709 2.449-1.765z"></path>
<path fill="#efe7e2" style="fill: var(--color2, #efe7e2)" d="M12.701 4.102l2-1.5 0.6 0.8-2 1.5-0.6-0.8z"></path>
<path fill="#efe7e2" style="fill: var(--color2, #efe7e2)" d="M30.211 23.521c0.179-0.3 0.289-0.647 0.289-1.021 0-0.85-0.535-1.572-1.282-1.862 0.176-0.281 0.282-0.61 0.282-0.966 0-0.92-0.688-1.7-1.601-1.814l-0.165-0.020c-1.467-0.184-2.72-1.15-3.269-2.523l-0.222-0.555-3.585 2.24c-0.724 0.452-1.157 1.233-1.157 2.087 0 0.305 0.062 0.598 0.165 0.872-0.232-0.074-0.467-0.138-0.71-0.18l-2.628-0.464c-0.833-0.147-1.486-0.807-1.625-1.641l-0.136-0.814c1.158-0.614 2.068-1.63 2.551-2.86h0.382c1.103 0 2-0.897 2-2s-0.897-2-2-2v-0.198c0-0.972-0.375-1.911-1.030-2.622 0.014-0.099 0.030-0.197 0.030-0.299 0-0.327-0.077-0.654-0.223-0.947l-0.329-0.659-0.895 0.447 0.329 0.659c0.078 0.154 0.118 0.328 0.118 0.5 0 0.617-0.501 1.118-1.118 1.118h-1.777c0.101-0.255 0.269-0.482 0.504-0.639l0.668-0.445-0.555-0.832-0.668 0.446c-0.518 0.345-0.869 0.875-0.998 1.47h-1.057c0-0.783 0.374-1.53 1-2l0.8-0.6-0.6-0.8-0.8 0.6c-0.87 0.652-1.39 1.689-1.399 2.776-0.57-0.113-1.001-0.616-1.001-1.219 0-0.63 0.301-1.232 0.806-1.61l0.994-0.746-0.6-0.8-0.995 0.746c-0.755 0.566-1.205 1.467-1.205 2.41 0 0.141 0.017 0.278 0.042 0.411-0.663 0.713-1.042 1.655-1.042 2.635v0.198c-1.103 0-2 0.897-2 2s0.897 2 2 2h0.382c0.482 1.23 1.393 2.246 2.551 2.86l-0.136 0.814c-0.139 0.834-0.792 1.494-1.625 1.641l-2.628 0.464c-2.633 0.464-4.544 2.742-4.544 5.416v6.305h29c1.103 0 2-0.897 2-2v-4.5c0-0.755-0.562-1.376-1.289-1.479zM28.5 23.5h-9c-0.551 0-1-0.449-1-1s0.449-1 1-1h9c0.552 0 1 0.449 1 1s-0.448 1-1 1zM21.187 17.847l2.601-1.625c0.773 1.424 2.191 2.404 3.822 2.608l0.165 0.021c0.414 0.052 0.725 0.405 0.725 0.822 0 0.456-0.371 0.827-0.828 0.827h-6.091l-0.082-0.028c-0.598-0.198-0.999-0.755-0.999-1.385 0-0.507 0.257-0.971 0.687-1.24zM18.5 12c0 0.551-0.449 1-1 1h-0.096c0.060-0.325 0.096-0.658 0.096-1v-1c0.551 0 1 0.448 1 1zM6.5 13c-0.551 0-1-0.449-1-1s0.449-1 1-1v1c0 0.342 0.035 0.675 0.096 1h-0.096zM7.5 12v-2.198c0-0.588 0.183-1.158 0.514-1.634 0.411 0.504 1.030 0.832 1.729 0.832h4.639c0.661 0 1.245-0.31 1.633-0.786 0.311 0.467 0.485 1.020 0.485 1.589v2.198c0 2.481-2.019 4.5-4.5 4.5s-4.5-2.019-4.5-4.5zM10.283 17.838l0.097-0.582c0.512 0.158 1.056 0.244 1.619 0.244s1.107-0.086 1.619-0.244l0.097 0.582c0.166 0.997 0.825 1.82 1.717 2.228-0.869 0.905-2.075 1.434-3.348 1.434h-0.169c-1.274 0-2.479-0.529-3.349-1.434 0.892-0.408 1.551-1.231 1.717-2.228zM16.768 30.5h-11.268v-5h-1v5h-3v-5.305c0-2.188 1.563-4.052 3.718-4.432l2.283-0.403c1.067 1.341 2.689 2.14 4.414 2.14h0.169c1.725 0 3.347-0.799 4.414-2.14l2.091 0.369c-0.644 0.333-1.090 0.997-1.090 1.771 0 0.374 0.11 0.721 0.289 1.021-0.727 0.103-1.289 0.724-1.289 1.479v4.5c0 0.364 0.097 0.705 0.268 1zM30.5 29.5c0 0.551-0.448 1-1 1h-11c-0.551 0-1-0.449-1-1v-4.5c0-0.276 0.224-0.5 0.5-0.5h12c0.276 0 0.5 0.224 0.5 0.5v4.5z"></path>
</symbol>
<symbol id="icon-beard" viewBox="0 0 32 32">
<path fill="#ff6e40" style="fill: var(--color1, #ff6e40)" d="M27.855 21.145c-0.875-0.87-1.355-2.030-1.355-3.265v-8.735c0-4.77-3.875-8.645-8.645-8.645-0.62 0-1.245 0.070-1.855 0.2-0.61-0.13-1.235-0.2-1.855-0.2-4.77 0-8.645 3.875-8.645 8.645v8.735c0 1.235-0.48 2.395-1.355 3.265l-0.49 0.49 0.62 0.31c2.035 1.020 4.31 1.555 6.58 1.555h1.145v-1.388h0.015c-1.86-1.066-3.015-3.043-3.015-5.197v-3c0-0.065 0.005-0.125 0.020-0.185l-0.005 0.010c-0.605-0.34-1.015-0.995-1.015-1.74 0-1.105 0.895-2 2-2v-0.030c0-1.515 0.855-2.9 2.21-3.575l0.79-0.395c0.645 1.29 1.74 2.295 3.075 2.83l0.425 0.17 0.5-3 1.785 0.295c0.79 0.135 1.52 0.51 2.085 1.075 0.725 0.725 1.13 1.705 1.13 2.725v-0.095c1.105 0 2 0.895 2 2 0 0.745-0.41 1.4-1.015 1.74l-0.005-0.010c0.015 0.060 0.020 0.12 0.020 0.185v3c0 2.155-1.155 4.131-3.016 5.197h0.016v1.388h1.145c2.27 0 4.545-0.535 6.58-1.555l0.62-0.31-0.49-0.49z"></path>
<path fill="#efe7e2" style="fill: var(--color2, #efe7e2)" d="M17 15.882c-0.19 0.381-0.573 0.618-1 0.618s-0.809-0.237-1-0.618l-0.052-0.105-0.895 0.447 0.053 0.106c0.361 0.722 1.087 1.17 1.894 1.17s1.534-0.448 1.895-1.171l0.052-0.105-0.894-0.448-0.053 0.106z"></path>
<path fill="#efe7e2" style="fill: var(--color2, #efe7e2)" d="M26.662 25.203l-6.162-1.12v-1.69c1.862-1.189 3-3.245 3-5.477v-2.917c0.624-0.469 1-1.209 1-1.999 0-1.221-0.88-2.235-2.038-2.453-0.119-0.954-0.546-1.838-1.236-2.528-0.645-0.645-1.461-1.065-2.361-1.215l-2.276-0.38-0.48 2.878c-1.069-0.466-1.95-1.267-2.525-2.279l0.237-0.356c0.905-1.357 2.419-2.168 4.051-2.168 0.965 0 1.899 0.282 2.702 0.818l0.147 0.098 0.554-0.832-0.147-0.098c-0.968-0.645-2.093-0.986-3.256-0.986-1.967 0-3.792 0.977-4.884 2.614l-0.332 0.499-0.67 0.335c-1.406 0.702-2.315 2.058-2.458 3.6-1.154 0.221-2.029 1.234-2.029 2.452 0 0.79 0.376 1.53 1 1.999v2.917c0 2.232 1.139 4.288 3 5.477v1.69l-6.162 1.12c-2.804 0.51-4.838 2.948-4.838 5.797v0.5h31v-0.5c0-2.849-2.035-5.287-4.838-5.797zM11.5 18.674c0.309 0.297 0.641 0.566 1 0.795v2.347l-0.107-0.058c-0.324-0.174-0.616-0.386-0.893-0.615v-2.469zM13.5 19.985c0.324 0.136 0.657 0.255 1 0.338v2.571l-1-0.538v-2.37zM15.5 20.471c0.166 0.013 0.332 0.029 0.5 0.029s0.334-0.016 0.5-0.029v2.93c-0.323 0.114-0.677 0.114-1 0v-2.93zM17.5 20.323c0.343-0.082 0.676-0.202 1-0.338v2.37l-1 0.538v-2.571zM19.5 21.816v-2.347c0.359-0.229 0.691-0.498 1-0.795v2.469c-0.276 0.229-0.569 0.441-0.893 0.615l-0.107 0.058zM20.4 17.301c-1.033 1.377-2.678 2.199-4.4 2.199s-3.366-0.822-4.4-2.199c-0.004-0.006-0.007-0.012-0.012-0.017l0.624-1.405c0.372-0.838 1.205-1.379 2.121-1.379 0.359 0 0.718 0.085 1.039 0.245l0.628 0.314 0.628-0.314c0.321-0.16 0.679-0.245 1.039-0.245 0.916 0 1.749 0.541 2.121 1.379l0.624 1.405c-0.004 0.005-0.008 0.011-0.012 0.017zM14.823 24.204c0.361 0.194 0.768 0.296 1.177 0.296s0.816-0.102 1.177-0.296l2.323-1.251v1.297l-3.5 2.625-3.5-2.625v-1.297l2.323 1.251zM15.207 27.53l-2.907 2.543-1.134-4.913 0.709-0.129 3.332 2.499zM16 28.164l2.669 2.336h-5.338l2.669-2.336zM16.794 27.53l3.332-2.499 0.709 0.129-1.134 4.913-2.907-2.543zM22.5 16.916c0 1.149-0.366 2.236-1 3.143v-2.597c0.648-1.031 1-2.242 1-3.462v2.916zM23.5 12c0 0.356-0.137 0.687-0.357 0.953-0.028-0.033-0.051-0.069-0.082-0.099l-0.56-0.561v-1.701c0.58 0.207 1 0.757 1 1.408zM10.5 9.972c0-1.334 0.741-2.534 1.935-3.131l0.359-0.179c0.716 1.189 1.799 2.114 3.096 2.633l1.001 0.4 0.52-3.119 1.29 0.215c0.692 0.115 1.321 0.439 1.818 0.935 0.632 0.632 0.981 1.473 0.981 2.368v3.906c0 0.761-0.164 1.517-0.469 2.213l-0.329-0.74c-0.533-1.198-1.724-1.973-3.035-1.973-0.513 0-1.027 0.121-1.486 0.351l-0.181 0.090-0.18-0.090c-0.459-0.23-0.973-0.351-1.486-0.351-1.311 0-2.503 0.774-3.035 1.973l-0.329 0.74c-0.305-0.696-0.469-1.452-0.469-2.213v-4.028zM9.5 10.592v1.701l-0.561 0.561c-0.031 0.031-0.054 0.066-0.082 0.099-0.221-0.266-0.357-0.597-0.357-0.953 0-0.651 0.419-1.201 1-1.408zM9.5 16.916v-2.916c0 1.221 0.353 2.431 1 3.462v2.597c-0.633-0.907-1-1.994-1-3.143zM5.517 26.187l4.664-0.848 1.191 5.162h-9.846c0.218-2.146 1.829-3.92 3.992-4.313zM20.629 30.5l1.191-5.162 4.663 0.848c2.162 0.393 3.773 2.167 3.991 4.313h-9.846z"></path>
<path fill="#efe7e2" style="fill: var(--color2, #efe7e2)" d="M13 11c0.275 0 0.5 0.224 0.5 0.5h1c0-0.827-0.673-1.5-1.5-1.5s-1.5 0.673-1.5 1.5h1c0-0.276 0.224-0.5 0.5-0.5z"></path>
<path fill="#efe7e2" style="fill: var(--color2, #efe7e2)" d="M19 11c0.275 0 0.5 0.224 0.5 0.5h1c0-0.827-0.673-1.5-1.5-1.5s-1.5 0.673-1.5 1.5h1c0-0.276 0.224-0.5 0.5-0.5z"></path>
</symbol>
<symbol id="icon-map" viewBox="0 0 32 32">
<path d="M26.501 7.965c-0.114-0.427-0.345-0.882-0.516-1.28-2.048-4.921-6.522-6.684-10.134-6.684-4.836 0-10.162 3.243-10.873 9.927v1.366c0 0.057 0.020 0.569 0.048 0.825 0.399 3.185 2.912 6.571 4.789 9.756 2.020 3.413 4.115 6.77 6.192 10.126 1.28-2.19 2.556-4.409 3.807-6.542 0.341-0.626 0.737-1.252 1.078-1.849 0.228-0.398 0.662-0.796 0.861-1.166 2.020-3.697 5.27-7.424 5.27-11.093v-1.507c0-0.398-0.493-1.792-0.521-1.877zM15.939 14.82c-1.422 0-2.978-0.711-3.746-2.674-0.114-0.312-0.105-0.939-0.105-0.996v-0.882c0-2.502 2.125-3.64 3.973-3.64 2.276 0 4.036 1.821 4.036 4.096s-1.883 4.096-4.158 4.096z"></path>
</symbol>
</defs>
</svg>
